<svg width="61" height="60" viewBox="0 0 61 60" fill="none" xmlns="http://www.w3.org/2000/svg">
<rect x="1.50122" y="1.49951" width="57" height="57" rx="8.5" stroke="#FA002C" stroke-opacity="0.15" stroke-width="3"/>
<path d="M16.5012 42.5995V17.3995C16.5012 16.9025 16.9042 16.4995 17.4012 16.4995H42.6012C43.0983 16.4995 43.5012 16.9025 43.5012 17.3995V42.5995C43.5012 43.0966 43.0983 43.4995 42.6012 43.4995H17.4012C16.9042 43.4995 16.5012 43.0966 16.5012 42.5995Z" stroke="#FA002C" stroke-width="2.5" stroke-linecap="round" stroke-linejoin="round"/>
<path d="M34.5012 24.7495C33.4737 23.722 31.6643 23.0073 30.0012 22.9626M25.5012 34.4995C26.4679 35.7885 28.2654 36.5236 30.0012 36.586M30.0012 22.9626C28.0226 22.9093 26.2512 23.8045 26.2512 26.2495C26.2512 30.7495 34.5012 28.4995 34.5012 32.9995C34.5012 35.566 32.3055 36.6688 30.0012 36.586M30.0012 22.9626V20.2495M30.0012 36.586V39.7495" stroke="#FA002C" stroke-width="2.5" stroke-linecap="round" stroke-linejoin="round"/>
</svg>
