<svg width="61" height="60" viewBox="0 0 61 60" fill="none" xmlns="http://www.w3.org/2000/svg">
<rect x="1.50122" y="1.49951" width="57" height="57" rx="8.5" stroke="#FA002C" stroke-opacity="0.15" stroke-width="3"/>
<path d="M40.0559 43.6401H20.0872C18.9873 43.639 17.9327 43.2016 17.155 42.4239C16.3773 41.6461 15.9398 40.5916 15.9387 39.4917V29.2964C15.9398 28.1965 16.3773 27.142 17.155 26.3642C17.9327 25.5865 18.9873 25.1491 20.0872 25.1479H27.1086C27.6494 25.1479 28.168 24.9331 28.5504 24.5507C28.9328 24.1683 29.1476 23.6497 29.1476 23.1089C29.1487 22.009 29.5862 20.9545 30.3639 20.1767C31.1417 19.399 32.1962 18.9616 33.2961 18.9604H40.0559C41.1558 18.9616 42.2103 19.399 42.9881 20.1767C43.7658 20.9545 44.2032 22.009 44.2043 23.1089V39.4917C44.203 40.5915 43.7656 41.6459 42.9879 42.4236C42.2102 43.2014 41.1557 43.6388 40.0559 43.6401ZM20.0872 27.2573C19.5464 27.2573 19.0277 27.4722 18.6453 27.8546C18.2629 28.2369 18.0481 28.7556 18.0481 29.2964V39.4917C18.0481 40.0325 18.2629 40.5511 18.6453 40.9335C19.0277 41.3159 19.5464 41.5308 20.0872 41.5308H40.0559C40.5967 41.5308 41.1153 41.3159 41.4977 40.9335C41.8801 40.5511 42.095 40.0325 42.095 39.4917V23.1089C42.095 22.5681 41.8801 22.0494 41.4977 21.6671C41.1153 21.2847 40.5967 21.0698 40.0559 21.0698H33.2961C32.7553 21.0698 32.2366 21.2847 31.8542 21.6671C31.4718 22.0494 31.257 22.5681 31.257 23.1089C31.2557 24.2087 30.8182 25.2631 30.0405 26.0408C29.2628 26.8185 28.2084 27.256 27.1086 27.2573H20.0872Z" fill="#FA002C"/>
<path d="M20.509 26.5906C20.2293 26.5906 19.961 26.4795 19.7633 26.2817C19.5655 26.0839 19.4543 25.8156 19.4543 25.5359V15.7625C19.4543 15.4827 19.5655 15.2145 19.7633 15.0167C19.961 14.8189 20.2293 14.7078 20.509 14.7078H39.634C39.9138 14.7078 40.182 14.8189 40.3798 15.0167C40.5776 15.2145 40.6887 15.4827 40.6887 15.7625V19.3484C40.6887 19.6281 40.5776 19.8964 40.3798 20.0942C40.182 20.292 39.9138 20.4031 39.634 20.4031C39.3543 20.4031 39.086 20.292 38.8883 20.0942C38.6905 19.8964 38.5793 19.6281 38.5793 19.3484V16.8171H21.5637V25.5359C21.5637 25.8156 21.4526 26.0839 21.2548 26.2817C21.057 26.4795 20.7888 26.5906 20.509 26.5906Z" fill="#FA002C"/>
</svg>
