<svg width="61" height="60" viewBox="0 0 61 60" fill="none" xmlns="http://www.w3.org/2000/svg">
<path d="M29.0806 14.9769L17.5806 20.9398C16.9175 21.2837 16.5012 21.9684 16.5012 22.7153V33.735C16.5012 33.9106 16.5219 34.0831 16.5747 34.2505C17.9468 38.6037 25.0966 45.4995 30.0012 45.4995C34.8496 45.4995 41.8918 37.8208 43.3783 34.3158C43.4661 34.1087 43.5012 33.8846 43.5012 33.6596V22.7154C43.5012 21.9684 43.085 21.2837 42.4219 20.9398L30.9219 14.9769C30.3446 14.6776 29.6578 14.6776 29.0806 14.9769Z" stroke="#FA002C" stroke-width="2.5"/>
<path d="M25.3342 30.3329L28.4377 33.3329L35.3342 26.6663" stroke="#FA002C" stroke-width="2.5"/>
<rect x="1.50122" y="1.49951" width="57" height="57" rx="8.5" stroke="#FA002C" stroke-opacity="0.15" stroke-width="3"/>
</svg>
