<svg width="61" height="60" viewBox="0 0 61 60" fill="none" xmlns="http://www.w3.org/2000/svg">
<rect x="1.50122" y="1.49951" width="57" height="57" rx="8.5" stroke="#FA002C" stroke-opacity="0.15" stroke-width="3"/>
<path fill-rule="evenodd" clip-rule="evenodd" d="M15.8524 26.5259H21.5866V43.2506H15.8524C15.3246 43.2506 14.8967 42.6746 14.8967 41.964V27.8124C14.8967 27.1019 15.3246 26.5259 15.8524 26.5259Z" stroke="#FA002C" stroke-width="2.5" stroke-linecap="round" stroke-linejoin="round"/>
<path d="M21.5864 27.7802L27.105 17.088C27.9203 15.5082 29.8619 14.8886 31.4416 15.7039C31.7367 15.8562 32.0065 16.0533 32.2413 16.2882C33.1823 17.2291 33.7109 18.5053 33.7109 19.836V24.8534H42.4927C43.2123 24.8534 43.8972 25.1624 44.3735 25.7019C44.8497 26.2413 45.0713 26.9593 44.9821 27.6733L43.1005 41.053C42.9436 42.3084 41.8764 43.2506 40.6112 43.2506H21.5864" stroke="#FA002C" stroke-width="2.5" stroke-linecap="round" stroke-linejoin="round"/>
</svg>
