<svg width="60" height="60" viewBox="0 0 60 60" fill="none" xmlns="http://www.w3.org/2000/svg">
<rect x="1.5" y="1.5" width="57" height="57" rx="8.5" stroke="#FA002C" stroke-opacity="0.15" stroke-width="3"/>
<path d="M43 43.0005H17C15.8954 43.0005 15 42.1051 15 41.0005V23.6255C15 22.5209 15.8954 21.6255 17 21.6255H21.8889C22.9935 21.6255 23.8889 20.7301 23.8889 19.6255V18.0005C23.8889 16.8959 24.7843 16.0005 25.8889 16.0005H34.1111C35.2157 16.0005 36.1111 16.8959 36.1111 18.0005V19.6255C36.1111 20.7301 37.0065 21.6255 38.1111 21.6255H43C44.1046 21.6255 45 22.5209 45 23.6255V41.0005C45 42.1051 44.1046 43.0005 43 43.0005Z" stroke="#FA002C" stroke-width="2.5"/>
<circle cx="30" cy="32.0005" r="6" stroke="#FA002C" stroke-width="2.5"/>
</svg>
