<svg width="61" height="60" viewBox="0 0 61 60" fill="none" xmlns="http://www.w3.org/2000/svg">
<rect x="1.50122" y="1.49951" width="57" height="57" rx="8.5" stroke="#FA002C" stroke-opacity="0.15" stroke-width="3"/>
<path d="M25.3342 33.3328L34.6676 23.3328" stroke="#FA002C" stroke-width="2.5" stroke-linecap="round" stroke-linejoin="round"/>
<path d="M25.5012 25.9995C26.3296 25.9995 27.0012 25.3279 27.0012 24.4995C27.0012 23.6711 26.3296 22.9995 25.5012 22.9995C24.6728 22.9995 24.0012 23.6711 24.0012 24.4995C24.0012 25.3279 24.6728 25.9995 25.5012 25.9995Z" stroke="#FA002C" stroke-width="2.5" stroke-linecap="round" stroke-linejoin="round"/>
<path d="M34.5012 33.9995C35.3296 33.9995 36.0012 33.3279 36.0012 32.4995C36.0012 31.6711 35.3296 30.9995 34.5012 30.9995C33.6728 30.9995 33.0012 31.6711 33.0012 32.4995C33.0012 33.3279 33.6728 33.9995 34.5012 33.9995Z" stroke="#FA002C" stroke-width="2.5" stroke-linecap="round" stroke-linejoin="round"/>
<path d="M18.0012 45.3329V18.0737C18.0012 17.17 18.3624 16.3033 19.0054 15.6643C19.6484 15.0253 20.5205 14.6663 21.4298 14.6663H38.5726C39.482 14.6663 40.354 15.0253 40.997 15.6643C41.64 16.3033 42.0012 17.17 42.0012 18.0737V45.3329L36.8584 41.9255L33.4298 45.3329L30.0012 41.9255L26.5726 45.3329L23.1441 41.9255L18.0012 45.3329Z" stroke="#FA002C" stroke-width="2.5" stroke-linecap="round" stroke-linejoin="round"/>
</svg>
