<svg width="19" height="24" viewBox="0 0 19 24" fill="none" xmlns="http://www.w3.org/2000/svg">
<path d="M9.01912 4.89392L5.1003 2.15861C4.79794 1.94755 4.44351 1.82342 4.07554 1.79971C3.70756 1.776 3.34013 1.85362 3.01319 2.02413C2.68624 2.19464 2.4123 2.45152 2.22114 2.76684C2.02998 3.08216 1.92893 3.44385 1.92896 3.81259V19.7114C1.92893 20.0801 2.02998 20.4418 2.22114 20.7571C2.4123 21.0725 2.68624 21.3293 3.01319 21.4999C3.34013 21.6704 3.70756 21.748 4.07554 21.7243C4.44351 21.7006 4.79794 21.5764 5.1003 21.3654L9.01912 18.6301L16.4886 13.4155C16.7548 13.2296 16.9723 12.9822 17.1225 12.6943C17.2726 12.4064 17.3511 12.0865 17.3511 11.7617C17.3511 11.437 17.2726 11.1171 17.1225 10.8292C16.9723 10.5412 16.7548 10.2938 16.4886 10.108L9.01912 4.89392Z" fill="#FA002C" stroke="white" stroke-width="3"/>
</svg>
