<svg width="34" height="43" viewBox="0 0 34 43" fill="none" xmlns="http://www.w3.org/2000/svg">
<path d="M15.9611 8.32085L8.41734 3.05537C7.8353 2.64908 7.15302 2.41012 6.44467 2.36448C5.73632 2.31884 5.02901 2.46826 4.39965 2.7965C3.77028 3.12473 3.24294 3.61923 2.87496 4.22622C2.50698 4.8332 2.31244 5.52945 2.3125 6.23927V36.8445C2.31244 37.5543 2.50698 38.2506 2.87496 38.8576C3.24294 39.4645 3.77028 39.959 4.39965 40.2873C5.02901 40.6155 5.73632 40.7649 6.44467 40.7193C7.15302 40.6736 7.8353 40.4347 8.41734 40.0284L15.9611 34.7629L30.3397 24.7249C30.8523 24.3671 31.271 23.8909 31.56 23.3366C31.8491 22.7824 32 22.1665 32 21.5414C32 20.9163 31.8491 20.3004 31.56 19.7462C31.271 19.1919 30.8523 18.7157 30.3397 18.3579L15.9611 8.32085Z" fill="#FA002C" stroke="white" stroke-width="3"/>
</svg>
